<?xml version="1.0" encoding="UTF-8"?><svg id="PatterPal" xmlns="http://www.w3.org/2000/svg" viewBox="0 0 200 200"><defs><style>.cls-1{fill:none;}.cls-1,.cls-2{stroke-width:0px;}</style></defs><path class="cls-2" d="m179.01,40.77c0-1.36-.12-2.73-.28-4.08-.91-7.61-4.15-14-9.83-19.21-5.87-5.39-12.81-7.84-20.65-7.9-6.35-.05-12.7.06-19.05.06-13.56,0-27.13,0-40.69-.03-11.01,0-22.02-.1-33.03-.11-2.19,0-4.42-.05-6.55.35-7.35,1.36-13.73,4.53-18.6,10.42-4.59,5.54-7.24,11.9-7.27,19.05-.12,28.38-.06,56.76-.02,85.14,0,2.26.25,4.53.58,6.76.87,5.82,3.52,10.83,7.36,15.2,1.55,1.76,2.42,3.5,2.39,6.03-.17,11.51-.07,23.03-.07,34.55,0,.37-.02.73,0,1.1.14,1.59,1.52,3.3,3.5,1.85.33-.24.68-.46.97-.74,4.41-4.36,8.83-8.72,13.21-13.1,6.33-6.33,12.62-12.7,18.95-19.02,1.33-1.33,2.91-2.06,4.9-1.96,2.28.12,4.57.05,6.85.02,2.08-.02,4.38-1.98,4.43-3.92.1-3.7.05-7.4.1-11.09.02-2.01-1.03-3.17-2.79-3.93-5.91-2.54-11.49-5.63-16.36-9.92-4.99-4.4-9.44-9.26-12.73-15.06-6.83-12.02-9.29-24.92-6.74-38.51,1.95-10.4,6.95-19.42,14.17-27.18,4.28-4.6,9.19-8.38,14.68-11.44,5.69-3.17,11.74-5.25,18.19-5.95,3.92-.42,7.87-.29,11.82.19,5.1.62,9.86,2.23,14.47,4.35,8.32,3.82,15.27,9.41,21,16.55,2.83,3.53,5.27,7.29,6.98,11.48,2.33,5.71,4.15,11.54,4.52,17.79.24,4.11.26,8.16-.36,12.22-.99,6.46-2.87,12.6-6.01,18.37-2.81,5.16-6.23,9.86-10.46,13.87-3.18,3.02-6.73,5.7-10.39,8.12-2.93,1.94-6.27,3.27-9.44,4.86-1.74.88-2.94,2.16-2.93,4.22.01,5.02-1.28,9.67-3.91,13.93-1.23,2-2.78,3.75-4.93,5.36v-28.63c.58-.15.97-.27,1.36-.34.45-.07.91-.05,1.35-.15,5.6-1.18,10.65-3.49,15.04-7.22,6.89-5.86,11.06-13.13,11.7-22.25.05-.69.23-1,.99-1.18,3.63-.86,6.33-5.32,4.14-9.28-1.8-3.25-4.9-4.59-8.09-3.34-2.39.94-4.16,3.47-4.13,6.05.05,4.51.09,9-1.72,13.28-2.56,6.02-6.53,10.74-12.3,13.91-4.63,2.54-9.56,3.55-14.81,3.29-4.24-.2-8.21-1.3-11.95-3.27-3.28-1.73-5.86-4.25-8.27-7.04-3.09-3.57-4.74-7.74-5.38-12.3-.37-2.69-.2-5.46-.38-8.18-.22-3.35-3.57-7.08-7.91-6.05-2.82.67-5.01,3.38-5.05,6.33-.04,3.14,1.94,5.94,4.82,6.6.77.18.93.48.99,1.16.13,1.49.18,3,.51,4.45,1.11,4.91,3.35,9.26,6.56,13.15,4.04,4.89,9,8.44,14.95,10.54,2.5.88,5.1,1.49,7.84,2.28v32.27c0,1.98-.25,2.23-2.3,2.25-2.33,0-4.67-.07-6.99.04-.9.05-1.89.36-2.63.86-1.54,1.06-1.71,2.7-1.28,4.39.37,1.44,2.27,2.94,3.95,2.93,3.64-.02,7.33.13,10.92-.35,7.21-.97,13.28-4.46,18.39-9.53,1.95-1.94,3.54-4.25,5.21-6.46,1.24-1.64,2.69-2.54,4.83-2.53,8.55.06,17.09.04,25.64,0,1.4,0,2.83-.06,4.2-.33,9.55-1.88,16.46-7.32,20.88-15.9,2.4-4.65,3.05-9.69,3.04-14.91-.07-27.74-.05-55.48-.08-83.22l-.02-.02Zm-23.37,2.63h0c-1.46-3.13-2.51-6.33-6.62-6.71,3.3-1.27,5.62-3.27,6.56-6.89v-.06.03-.03.06c.97,3.62,3.3,5.6,6.61,6.85-4.1.41-5.13,3.63-6.57,6.76h.02Zm-79.57,54.64c0,1.17.16,2.35.4,3.5,1.13,5.27,3.69,9.68,7.89,13.15,5.44,4.5,11.54,6.68,18.64,5.71,6.48-.89,11.85-3.66,16.01-8.84,3.38-4.2,5.17-8.9,5.18-14.27,0-4.98.01-9.95-.03-14.93-.07-8.81-.13-17.62-.32-26.43-.04-1.79-.4-3.64-.98-5.34-1.88-5.44-5.45-9.5-10.42-12.44-3.39-2.01-7.01-3.32-10.87-3.54-8.63-.5-15.84,2.62-21.04,9.59-2.84,3.81-4.71,8.07-4.52,13.13.25,6.43.06,12.88.06,19.33,0,7.13-.02,14.26.02,21.39h-.02Zm6.21-41.34c0-1.54,1.26-2.81,2.81-2.81h29.81c1.54,0,2.81,1.26,2.81,2.81v.26c0,1.54-1.26,2.81-2.81,2.81h-29.81c-1.54,0-2.81-1.26-2.81-2.81,0,0,0-.26,0-.26Zm0,10.49c0-1.54,1.26-2.81,2.81-2.81h29.81c1.54,0,2.81,1.26,2.81,2.81v.26c0,1.54-1.26,2.81-2.81,2.81h-29.81c-1.54,0-2.81-1.26-2.81-2.81,0,0,0-.26,0-.26Zm0,10.49c0-1.54,1.26-2.81,2.81-2.81h29.81c1.54,0,2.81,1.26,2.81,2.81v.26c0,.29-.05.58-.13.85-.11.48-.37.9-.76,1.2-.5.47-1.17.76-1.91.76h-29.81c-1.54,0-2.81-1.26-2.81-2.81v-.26h0Zm0,10.49c0-1.54,1.26-2.81,2.81-2.81h29.81c1.54,0,2.81,1.26,2.81,2.81v.26c0,1.18-.74,2.19-1.77,2.6-.47.24-1.01.39-1.57.39-9.36.03-18.72.03-28.08,0-.54,0-1.1-.1-1.64-.24-1.34-.21-2.37-1.37-2.37-2.77v-.26.02Zm-6.21,9.86c0,1.17.16,2.35.4,3.5,1.13,5.27,3.69,9.68,7.89,13.15,5.44,4.5,11.54,6.68,18.64,5.71,6.48-.89,11.85-3.66,16.01-8.84,3.38-4.2,5.17-8.9,5.18-14.27,0-4.98.01-9.95-.03-14.93-.07-8.81-.13-17.62-.32-26.43-.04-1.79-.4-3.64-.98-5.34-1.88-5.44-5.45-9.5-10.42-12.44-3.39-2.01-7.01-3.32-10.87-3.54-8.63-.5-15.84,2.62-21.04,9.59-2.84,3.81-4.71,8.07-4.52,13.13.25,6.43.06,12.88.06,19.33,0,7.13-.02,14.26.02,21.39h-.02Zm6.21-41.34c0-1.54,1.26-2.81,2.81-2.81h29.81c1.54,0,2.81,1.26,2.81,2.81v.26c0,1.54-1.26,2.81-2.81,2.81h-29.81c-1.54,0-2.81-1.26-2.81-2.81,0,0,0-.26,0-.26Zm0,10.49c0-1.54,1.26-2.81,2.81-2.81h29.81c1.54,0,2.81,1.26,2.81,2.81v.26c0,1.54-1.26,2.81-2.81,2.81h-29.81c-1.54,0-2.81-1.26-2.81-2.81,0,0,0-.26,0-.26Zm0,10.49c0-1.54,1.26-2.81,2.81-2.81h29.81c1.54,0,2.81,1.26,2.81,2.81v.26c0,.29-.05.58-.13.85-.11.48-.37.9-.76,1.2-.5.47-1.17.76-1.91.76h-29.81c-1.54,0-2.81-1.26-2.81-2.81v-.26h0Zm0,10.49c0-1.54,1.26-2.81,2.81-2.81h29.81c1.54,0,2.81,1.26,2.81,2.81v.26c0,1.18-.74,2.19-1.77,2.6-.47.24-1.01.39-1.57.39-9.36.03-18.72.03-28.08,0-.54,0-1.1-.1-1.64-.24-1.34-.21-2.37-1.37-2.37-2.77v-.26.02Zm58.12-25.53c.2-2.34-2-4.1-4.13-4.14-2.35-.04-4.17,1.88-4.2,4.26-.03,2.21,1.89,4.21,4.07,4.25,2.27.05,4.24-1.98,4.26-4.38h0Z"/><rect class="cls-1" width="200" height="200"/></svg>