<?xml version="1.0" encoding="us-ascii" standalone="no"?><svg xmlns="http://www.w3.org/2000/svg" xmlns:xlink="http://www.w3.org/1999/xlink" contentStyleType="text/css" height="743px" preserveAspectRatio="none" style="width:1403px;height:743px;background:#FFFFFF;" version="1.1" viewBox="0 0 1403 743" width="1403px" zoomAndPan="magnify"><defs/><g><line style="stroke:#181818;stroke-width:0.5;stroke-dasharray:5.0,5.0;" x1="121" x2="121" y1="36.2969" y2="708.3516"/><line style="stroke:#181818;stroke-width:0.5;stroke-dasharray:5.0,5.0;" x1="373" x2="373" y1="36.2969" y2="708.3516"/><line style="stroke:#181818;stroke-width:0.5;stroke-dasharray:5.0,5.0;" x1="605.5" x2="605.5" y1="36.2969" y2="708.3516"/><line style="stroke:#181818;stroke-width:0.5;stroke-dasharray:5.0,5.0;" x1="814.5" x2="814.5" y1="36.2969" y2="708.3516"/><line style="stroke:#181818;stroke-width:0.5;stroke-dasharray:5.0,5.0;" x1="1056.5" x2="1056.5" y1="36.2969" y2="708.3516"/><line style="stroke:#181818;stroke-width:0.5;stroke-dasharray:5.0,5.0;" x1="1283.5" x2="1283.5" y1="36.2969" y2="708.3516"/><rect fill="#E2E2F0" height="30.2969" rx="2.5" ry="2.5" style="stroke:#181818;stroke-width:0.5;" width="45" x="99" y="5"/><text fill="#000000" font-family="sans-serif" font-size="14" lengthAdjust="spacing" textLength="31" x="106" y="24.9951">User</text><rect fill="#E2E2F0" height="30.2969" rx="2.5" ry="2.5" style="stroke:#181818;stroke-width:0.5;" width="45" x="99" y="707.3516"/><text fill="#000000" font-family="sans-serif" font-size="14" lengthAdjust="spacing" textLength="31" x="106" y="727.3467">User</text><rect fill="#E2E2F0" height="30.2969" rx="2.5" ry="2.5" style="stroke:#181818;stroke-width:0.5;" width="189" x="279" y="5"/><text fill="#000000" font-family="sans-serif" font-size="14" lengthAdjust="spacing" textLength="175" x="286" y="24.9951">Azure App Service (AAS)</text><rect fill="#E2E2F0" height="30.2969" rx="2.5" ry="2.5" style="stroke:#181818;stroke-width:0.5;" width="189" x="279" y="707.3516"/><text fill="#000000" font-family="sans-serif" font-size="14" lengthAdjust="spacing" textLength="175" x="286" y="727.3467">Azure App Service (AAS)</text><rect fill="#E2E2F0" height="30.2969" rx="2.5" ry="2.5" style="stroke:#181818;stroke-width:0.5;" width="140" x="535.5" y="5"/><text fill="#000000" font-family="sans-serif" font-size="14" lengthAdjust="spacing" textLength="126" x="542.5" y="24.9951">Azure Cosmos DB</text><rect fill="#E2E2F0" height="30.2969" rx="2.5" ry="2.5" style="stroke:#181818;stroke-width:0.5;" width="140" x="535.5" y="707.3516"/><text fill="#000000" font-family="sans-serif" font-size="14" lengthAdjust="spacing" textLength="126" x="542.5" y="727.3467">Azure Cosmos DB</text><rect fill="#E2E2F0" height="30.2969" rx="2.5" ry="2.5" style="stroke:#181818;stroke-width:0.5;" width="258" x="685.5" y="5"/><text fill="#000000" font-family="sans-serif" font-size="14" lengthAdjust="spacing" textLength="244" x="692.5" y="24.9951">Azure Speech Pronunciation (ASP)</text><rect fill="#E2E2F0" height="30.2969" rx="2.5" ry="2.5" style="stroke:#181818;stroke-width:0.5;" width="258" x="685.5" y="707.3516"/><text fill="#000000" font-family="sans-serif" font-size="14" lengthAdjust="spacing" textLength="244" x="692.5" y="727.3467">Azure Speech Pronunciation (ASP)</text><rect fill="#E2E2F0" height="30.2969" rx="2.5" ry="2.5" style="stroke:#181818;stroke-width:0.5;" width="206" x="953.5" y="5"/><text fill="#000000" font-family="sans-serif" font-size="14" lengthAdjust="spacing" textLength="192" x="960.5" y="24.9951">OpenAI Chat Service (OCS)</text><rect fill="#E2E2F0" height="30.2969" rx="2.5" ry="2.5" style="stroke:#181818;stroke-width:0.5;" width="206" x="953.5" y="707.3516"/><text fill="#000000" font-family="sans-serif" font-size="14" lengthAdjust="spacing" textLength="192" x="960.5" y="727.3467">OpenAI Chat Service (OCS)</text><rect fill="#E2E2F0" height="30.2969" rx="2.5" ry="2.5" style="stroke:#181818;stroke-width:0.5;" width="228" x="1169.5" y="5"/><text fill="#000000" font-family="sans-serif" font-size="14" lengthAdjust="spacing" textLength="214" x="1176.5" y="24.9951">Azure Speech Synthesis (ASS)</text><rect fill="#E2E2F0" height="30.2969" rx="2.5" ry="2.5" style="stroke:#181818;stroke-width:0.5;" width="228" x="1169.5" y="707.3516"/><text fill="#000000" font-family="sans-serif" font-size="14" lengthAdjust="spacing" textLength="214" x="1176.5" y="727.3467">Azure Speech Synthesis (ASS)</text><polygon fill="#181818" points="361.5,63.4297,371.5,67.4297,361.5,71.4297,365.5,67.4297" style="stroke:#181818;stroke-width:1.0;"/><line style="stroke:#181818;stroke-width:1.0;" x1="121.5" x2="367.5" y1="67.4297" y2="67.4297"/><text fill="#000000" font-family="sans-serif" font-size="13" lengthAdjust="spacing" textLength="128" x="128.5" y="62.3638">Request Websocket</text><path d="M5,80.4297 L5,105.4297 L239,105.4297 L239,90.4297 L229,80.4297 L5,80.4297 " fill="#FEFFDD" style="stroke:#181818;stroke-width:0.5;"/><path d="M229,80.4297 L229,90.4297 L239,90.4297 L229,80.4297 " fill="#FEFFDD" style="stroke:#181818;stroke-width:0.5;"/><text fill="#000000" font-family="sans-serif" font-size="13" lengthAdjust="spacing" textLength="213" x="11" y="97.4966">User waits for websocket to start</text><polygon fill="#181818" points="132.5,127.6953,122.5,131.6953,132.5,135.6953,128.5,131.6953" style="stroke:#181818;stroke-width:1.0;"/><line style="stroke:#181818;stroke-width:1.0;" x1="126.5" x2="372.5" y1="131.6953" y2="131.6953"/><text fill="#000000" font-family="sans-serif" font-size="13" lengthAdjust="spacing" textLength="121" x="138.5" y="126.6294">Websocket started</text><polygon fill="#181818" points="361.5,171.9609,371.5,175.9609,361.5,179.9609,365.5,175.9609" style="stroke:#181818;stroke-width:1.0;"/><line style="stroke:#181818;stroke-width:1.0;" x1="121.5" x2="367.5" y1="175.9609" y2="175.9609"/><text fill="#000000" font-family="sans-serif" font-size="13" lengthAdjust="spacing" textLength="154" x="128.5" y="155.7622">Speaks into microphone</text><text fill="#000000" font-family="sans-serif" font-size="13" lengthAdjust="spacing" textLength="114" x="128.5" y="170.895">and streams data</text><polygon fill="#181818" points="802.5,201.0938,812.5,205.0938,802.5,209.0938,806.5,205.0938" style="stroke:#181818;stroke-width:1.0;"/><line style="stroke:#181818;stroke-width:1.0;" x1="373.5" x2="808.5" y1="205.0938" y2="205.0938"/><text fill="#000000" font-family="sans-serif" font-size="13" lengthAdjust="spacing" textLength="117" x="380.5" y="200.0278">Passes audio data</text><polygon fill="#181818" points="384.5,230.2266,374.5,234.2266,384.5,238.2266,380.5,234.2266" style="stroke:#181818;stroke-width:1.0;"/><line style="stroke:#181818;stroke-width:1.0;" x1="378.5" x2="813.5" y1="234.2266" y2="234.2266"/><text fill="#000000" font-family="sans-serif" font-size="13" lengthAdjust="spacing" textLength="179" x="390.5" y="229.1606">Provides recognized speech</text><polygon fill="#181818" points="132.5,259.3594,122.5,263.3594,132.5,267.3594,128.5,263.3594" style="stroke:#181818;stroke-width:1.0;"/><line style="stroke:#181818;stroke-width:1.0;" x1="126.5" x2="372.5" y1="263.3594" y2="263.3594"/><text fill="#000000" font-family="sans-serif" font-size="13" lengthAdjust="spacing" textLength="228" x="138.5" y="258.2935">Provides recognized speech as text</text><path d="M26,276.3594 L26,316.3594 L216,316.3594 L216,286.3594 L206,276.3594 L26,276.3594 " fill="#FEFFDD" style="stroke:#181818;stroke-width:0.5;"/><path d="M206,276.3594 L206,286.3594 L216,286.3594 L206,276.3594 " fill="#FEFFDD" style="stroke:#181818;stroke-width:0.5;"/><text fill="#000000" font-family="sans-serif" font-size="13" lengthAdjust="spacing" textLength="169" x="32" y="293.4263">Either user presses button</text><text fill="#000000" font-family="sans-serif" font-size="13" lengthAdjust="spacing" textLength="113" x="32" y="308.5591">or stops speaking</text><polygon fill="#181818" points="132.5,353.8906,122.5,357.8906,132.5,361.8906,128.5,357.8906" style="stroke:#181818;stroke-width:1.0;"/><line style="stroke:#181818;stroke-width:1.0;" x1="126.5" x2="372.5" y1="357.8906" y2="357.8906"/><text fill="#000000" font-family="sans-serif" font-size="13" lengthAdjust="spacing" textLength="108" x="138.5" y="337.6919">Provides full text</text><text fill="#000000" font-family="sans-serif" font-size="13" lengthAdjust="spacing" textLength="205" x="138.5" y="352.8247">and pronounciation assessment</text><polygon fill="#181818" points="593.5,383.0234,603.5,387.0234,593.5,391.0234,597.5,387.0234" style="stroke:#181818;stroke-width:1.0;"/><line style="stroke:#181818;stroke-width:1.0;" x1="373.5" x2="599.5" y1="387.0234" y2="387.0234"/><text fill="#000000" font-family="sans-serif" font-size="13" lengthAdjust="spacing" textLength="208" x="380.5" y="381.9575">Request and add to Chat history</text><polygon fill="#181818" points="384.5,412.1563,374.5,416.1563,384.5,420.1563,380.5,416.1563" style="stroke:#181818;stroke-width:1.0;"/><line style="stroke:#181818;stroke-width:1.0;" x1="378.5" x2="604.5" y1="416.1563" y2="416.1563"/><text fill="#000000" font-family="sans-serif" font-size="13" lengthAdjust="spacing" textLength="137" x="390.5" y="411.0903">Provides Chat history</text><polygon fill="#181818" points="1044.5,441.2891,1054.5,445.2891,1044.5,449.2891,1048.5,445.2891" style="stroke:#181818;stroke-width:1.0;"/><line style="stroke:#181818;stroke-width:1.0;" x1="373.5" x2="1050.5" y1="445.2891" y2="445.2891"/><text fill="#000000" font-family="sans-serif" font-size="13" lengthAdjust="spacing" textLength="472" x="380.5" y="440.2231">Request with custom prompt, chat history and pronunciation assessment</text><polygon fill="#181818" points="384.5,470.4219,374.5,474.4219,384.5,478.4219,380.5,474.4219" style="stroke:#181818;stroke-width:1.0;"/><line style="stroke:#181818;stroke-width:1.0;" x1="378.5" x2="1055.5" y1="474.4219" y2="474.4219"/><text fill="#000000" font-family="sans-serif" font-size="13" lengthAdjust="spacing" textLength="105" x="390.5" y="469.356">Streams answer</text><polygon fill="#181818" points="132.5,499.5547,122.5,503.5547,132.5,507.5547,128.5,503.5547" style="stroke:#181818;stroke-width:1.0;"/><line style="stroke:#181818;stroke-width:1.0;" x1="126.5" x2="372.5" y1="503.5547" y2="503.5547"/><text fill="#000000" font-family="sans-serif" font-size="13" lengthAdjust="spacing" textLength="197" x="138.5" y="498.4888">Streams user-adjusted answer</text><path d="M960,516.5547 L960,541.5547 L1152,541.5547 L1152,526.5547 L1142,516.5547 L960,516.5547 " fill="#FEFFDD" style="stroke:#181818;stroke-width:0.5;"/><path d="M1142,516.5547 L1142,526.5547 L1152,526.5547 L1142,516.5547 " fill="#FEFFDD" style="stroke:#181818;stroke-width:0.5;"/><text fill="#000000" font-family="sans-serif" font-size="13" lengthAdjust="spacing" textLength="171" x="966" y="533.6216">Streaming answer finished</text><polygon fill="#181818" points="1271.5,563.8203,1281.5,567.8203,1271.5,571.8203,1275.5,567.8203" style="stroke:#181818;stroke-width:1.0;"/><line style="stroke:#181818;stroke-width:1.0;" x1="373.5" x2="1277.5" y1="567.8203" y2="567.8203"/><text fill="#000000" font-family="sans-serif" font-size="13" lengthAdjust="spacing" textLength="271" x="380.5" y="562.7544">Requests speech synthesis for full answer</text><polygon fill="#181818" points="384.5,592.9531,374.5,596.9531,384.5,600.9531,380.5,596.9531" style="stroke:#181818;stroke-width:1.0;"/><line style="stroke:#181818;stroke-width:1.0;" x1="378.5" x2="1282.5" y1="596.9531" y2="596.9531"/><text fill="#000000" font-family="sans-serif" font-size="13" lengthAdjust="spacing" textLength="129" x="390.5" y="591.8872">Returns audio result</text><polygon fill="#181818" points="132.5,622.0859,122.5,626.0859,132.5,630.0859,128.5,626.0859" style="stroke:#181818;stroke-width:1.0;"/><line style="stroke:#181818;stroke-width:1.0;" x1="126.5" x2="372.5" y1="626.0859" y2="626.0859"/><text fill="#000000" font-family="sans-serif" font-size="13" lengthAdjust="spacing" textLength="124" x="138.5" y="621.02">Passes audio result</text><polygon fill="#181818" points="132.5,651.2188,122.5,655.2188,132.5,659.2188,128.5,655.2188" style="stroke:#181818;stroke-width:1.0;"/><line style="stroke:#181818;stroke-width:1.0;" x1="126.5" x2="372.5" y1="655.2188" y2="655.2188"/><text fill="#000000" font-family="sans-serif" font-size="13" lengthAdjust="spacing" textLength="141" x="138.5" y="650.1528">Closes the connection</text><path d="M74,668.2188 L74,693.2188 L168,693.2188 L168,678.2188 L158,668.2188 L74,668.2188 " fill="#FEFFDD" style="stroke:#181818;stroke-width:0.5;"/><path d="M158,668.2188 L158,678.2188 L168,678.2188 L158,668.2188 " fill="#FEFFDD" style="stroke:#181818;stroke-width:0.5;"/><text fill="#000000" font-family="sans-serif" font-size="13" lengthAdjust="spacing" textLength="73" x="80" y="685.2856">Plays audio</text><!--SRC=[VLF1Rjim3BtxAuYUDc3zWHm6ECaEEzMOCEpIYoepjHQRqaGfMVhrenGxZfjqbq087nyV7v-z3j4QwpL5-CaOAd_rnqFzbW92xJqe30Th43xLjVhy09f17lV06yU3OzYk2sYxleTH7j5qq0H7YOpLqJeIPjMCpAfPTZrvfFexR3eTPo5Fcr68FFupH9qeTiYMyu19kb9LbRU5nwzvZnNym3y9ES8lV65dzXWhSX717GIJWQlo2qTj8yFEoMi2GdJ0KSPNGfJvpl0BqRc8xRk1eaxl6In9-s1DSBvpXC-agPMEW7fWQ7NK4wjuie96CoE3JgrrOrKr5qgnys1RgGSqxfNi6mfLCM4fxMDSzYRYtzlblrdnC43A6_Y0HSLBYj7HCuaP79tdpA7tbbu_cBPBVL_OpqjwERwRhrysum4fLbF_TZtV9NVejircbnHqLcQ6KxLTtww_08nSaf6Px2ZRW4a26BACmSSlOAwQOD9tLvvGpLSSBwM9Z_BjB1QVQjcqHzt-bdbYz8YyShX8EuF5l140EqkMEudDvVxp0ZoTYo_Ppf4i1azAbBhATao1fjZ8zLB_BgoBNDq3R7gN0J8CZ2D2aqsvIKdJwzF8yWy0]--></g></svg>