<?xml version="1.0" encoding="us-ascii" standalone="no"?><svg xmlns="http://www.w3.org/2000/svg" xmlns:xlink="http://www.w3.org/1999/xlink" contentStyleType="text/css" height="365px" preserveAspectRatio="none" style="width:762px;height:365px;background:#FFFFFF;" version="1.1" viewBox="0 0 762 365" width="762px" zoomAndPan="magnify"><defs/><g><!--class ConversationData--><g id="elem_ConversationData"><rect codeLine="1" fill="#F1F1F1" height="96.8906" id="ConversationData" rx="2.5" ry="2.5" style="stroke:#181818;stroke-width:0.5;" width="161" x="7" y="47.5"/><ellipse cx="22" cy="63.5" fill="#ADD1B2" rx="11" ry="11" style="stroke:#181818;stroke-width:1.0;"/><path d="M24.3438,59.1719 C23.4063,58.7344 22.8125,58.5938 21.9375,58.5938 C19.3125,58.5938 17.3125,60.6719 17.3125,63.3906 L17.3125,64.5156 C17.3125,67.0938 19.4219,68.9844 22.3125,68.9844 C23.5313,68.9844 24.6875,68.6875 25.4375,68.1406 C26.0156,67.7344 26.3438,67.2813 26.3438,66.8906 C26.3438,66.4375 25.9531,66.0469 25.4844,66.0469 C25.2656,66.0469 25.0625,66.125 24.875,66.3125 C24.4219,66.7969 24.4219,66.7969 24.2344,66.8906 C23.8125,67.1563 23.125,67.2813 22.3594,67.2813 C20.3125,67.2813 19.0156,66.1875 19.0156,64.4844 L19.0156,63.3906 C19.0156,61.6094 20.2656,60.2969 22,60.2969 C22.5781,60.2969 23.1875,60.4531 23.6563,60.7031 C24.1406,60.9844 24.3125,61.2031 24.4063,61.6094 C24.4688,62.0156 24.5,62.1406 24.6406,62.2656 C24.7813,62.4063 25.0156,62.5156 25.2344,62.5156 C25.5,62.5156 25.7656,62.375 25.9375,62.1563 C26.0469,62 26.0781,61.8125 26.0781,61.3906 L26.0781,59.9688 C26.0781,59.5313 26.0625,59.4063 25.9688,59.25 C25.8125,58.9844 25.5313,58.8438 25.2344,58.8438 C24.9375,58.8438 24.7344,58.9375 24.5156,59.25 L24.3438,59.1719 Z " fill="#000000"/><text fill="#000000" font-family="sans-serif" font-size="14" lengthAdjust="spacing" textLength="129" x="36" y="68.3467">ConversationData</text><line style="stroke:#181818;stroke-width:0.5;" x1="8" x2="167" y1="79.5" y2="79.5"/><ellipse cx="18" cy="93.1484" fill="none" rx="3" ry="3" style="stroke:#038048;stroke-width:1.0;"/><text fill="#000000" font-family="sans-serif" font-size="14" lengthAdjust="spacing" textLength="88" x="27" y="96.4951">Guid Id &#171;PK&#187;</text><ellipse cx="18" cy="109.4453" fill="none" rx="3" ry="3" style="stroke:#038048;stroke-width:1.0;"/><text fill="#000000" font-family="sans-serif" font-size="14" lengthAdjust="spacing" textLength="130" x="27" y="112.792">String UserId &#171;FK&#187;</text><ellipse cx="18" cy="125.7422" fill="none" rx="3" ry="3" style="stroke:#038048;stroke-width:1.0;"/><text fill="#000000" font-family="sans-serif" font-size="14" lengthAdjust="spacing" textLength="81" x="27" y="129.0889">String Title</text><line style="stroke:#181818;stroke-width:0.5;" x1="8" x2="167" y1="136.3906" y2="136.3906"/></g><!--class ChatData--><g id="elem_ChatData"><rect codeLine="7" fill="#F1F1F1" height="113.1875" id="ChatData" rx="2.5" ry="2.5" style="stroke:#181818;stroke-width:0.5;" width="142" x="16.5" y="245"/><ellipse cx="50.4" cy="261" fill="#ADD1B2" rx="11" ry="11" style="stroke:#181818;stroke-width:1.0;"/><path d="M52.7438,256.6719 C51.8063,256.2344 51.2125,256.0938 50.3375,256.0938 C47.7125,256.0938 45.7125,258.1719 45.7125,260.8906 L45.7125,262.0156 C45.7125,264.5938 47.8219,266.4844 50.7125,266.4844 C51.9313,266.4844 53.0875,266.1875 53.8375,265.6406 C54.4156,265.2344 54.7438,264.7813 54.7438,264.3906 C54.7438,263.9375 54.3531,263.5469 53.8844,263.5469 C53.6656,263.5469 53.4625,263.625 53.275,263.8125 C52.8219,264.2969 52.8219,264.2969 52.6344,264.3906 C52.2125,264.6563 51.525,264.7813 50.7594,264.7813 C48.7125,264.7813 47.4156,263.6875 47.4156,261.9844 L47.4156,260.8906 C47.4156,259.1094 48.6656,257.7969 50.4,257.7969 C50.9781,257.7969 51.5875,257.9531 52.0563,258.2031 C52.5406,258.4844 52.7125,258.7031 52.8063,259.1094 C52.8688,259.5156 52.9,259.6406 53.0406,259.7656 C53.1813,259.9063 53.4156,260.0156 53.6344,260.0156 C53.9,260.0156 54.1656,259.875 54.3375,259.6563 C54.4469,259.5 54.4781,259.3125 54.4781,258.8906 L54.4781,257.4688 C54.4781,257.0313 54.4625,256.9063 54.3688,256.75 C54.2125,256.4844 53.9313,256.3438 53.6344,256.3438 C53.3375,256.3438 53.1344,256.4375 52.9156,256.75 L52.7438,256.6719 Z " fill="#000000"/><text fill="#000000" font-family="sans-serif" font-size="14" lengthAdjust="spacing" textLength="68" x="68.6" y="265.8467">ChatData</text><line style="stroke:#181818;stroke-width:0.5;" x1="17.5" x2="157.5" y1="277" y2="277"/><ellipse cx="27.5" cy="290.6484" fill="none" rx="3" ry="3" style="stroke:#038048;stroke-width:1.0;"/><text fill="#000000" font-family="sans-serif" font-size="14" lengthAdjust="spacing" textLength="37" x="36.5" y="293.9951">Int Id</text><ellipse cx="27.5" cy="306.9453" fill="none" rx="3" ry="3" style="stroke:#038048;stroke-width:1.0;"/><text fill="#000000" font-family="sans-serif" font-size="14" lengthAdjust="spacing" textLength="104" x="36.5" y="310.292">Boolean IsUser</text><ellipse cx="27.5" cy="323.2422" fill="none" rx="3" ry="3" style="stroke:#038048;stroke-width:1.0;"/><text fill="#000000" font-family="sans-serif" font-size="14" lengthAdjust="spacing" textLength="81" x="36.5" y="326.5889">String Text</text><ellipse cx="27.5" cy="339.5391" fill="none" rx="3" ry="3" style="stroke:#038048;stroke-width:1.0;"/><text fill="#000000" font-family="sans-serif" font-size="14" lengthAdjust="spacing" textLength="116" x="36.5" y="342.8857">String Language</text><line style="stroke:#181818;stroke-width:0.5;" x1="17.5" x2="157.5" y1="350.1875" y2="350.1875"/></g><!--class WordData--><g id="elem_WordData"><rect codeLine="14" fill="#F1F1F1" height="96.8906" id="WordData" rx="2.5" ry="2.5" style="stroke:#181818;stroke-width:0.5;" width="186" x="246.5" y="253"/><ellipse cx="299.25" cy="269" fill="#ADD1B2" rx="11" ry="11" style="stroke:#181818;stroke-width:1.0;"/><path d="M301.5938,264.6719 C300.6563,264.2344 300.0625,264.0938 299.1875,264.0938 C296.5625,264.0938 294.5625,266.1719 294.5625,268.8906 L294.5625,270.0156 C294.5625,272.5938 296.6719,274.4844 299.5625,274.4844 C300.7813,274.4844 301.9375,274.1875 302.6875,273.6406 C303.2656,273.2344 303.5938,272.7813 303.5938,272.3906 C303.5938,271.9375 303.2031,271.5469 302.7344,271.5469 C302.5156,271.5469 302.3125,271.625 302.125,271.8125 C301.6719,272.2969 301.6719,272.2969 301.4844,272.3906 C301.0625,272.6563 300.375,272.7813 299.6094,272.7813 C297.5625,272.7813 296.2656,271.6875 296.2656,269.9844 L296.2656,268.8906 C296.2656,267.1094 297.5156,265.7969 299.25,265.7969 C299.8281,265.7969 300.4375,265.9531 300.9063,266.2031 C301.3906,266.4844 301.5625,266.7031 301.6563,267.1094 C301.7188,267.5156 301.75,267.6406 301.8906,267.7656 C302.0313,267.9063 302.2656,268.0156 302.4844,268.0156 C302.75,268.0156 303.0156,267.875 303.1875,267.6563 C303.2969,267.5 303.3281,267.3125 303.3281,266.8906 L303.3281,265.4688 C303.3281,265.0313 303.3125,264.9063 303.2188,264.75 C303.0625,264.4844 302.7813,264.3438 302.4844,264.3438 C302.1875,264.3438 301.9844,264.4375 301.7656,264.75 L301.5938,264.6719 Z " fill="#000000"/><text fill="#000000" font-family="sans-serif" font-size="14" lengthAdjust="spacing" textLength="72" x="319.75" y="273.8467">WordData</text><line style="stroke:#181818;stroke-width:0.5;" x1="247.5" x2="431.5" y1="285" y2="285"/><ellipse cx="257.5" cy="298.6484" fill="none" rx="3" ry="3" style="stroke:#038048;stroke-width:1.0;"/><text fill="#000000" font-family="sans-serif" font-size="14" lengthAdjust="spacing" textLength="81" x="266.5" y="301.9951">String Text</text><ellipse cx="257.5" cy="314.9453" fill="none" rx="3" ry="3" style="stroke:#038048;stroke-width:1.0;"/><text fill="#000000" font-family="sans-serif" font-size="14" lengthAdjust="spacing" textLength="160" x="266.5" y="318.292">Double AccuracyScore</text><ellipse cx="257.5" cy="331.2422" fill="none" rx="3" ry="3" style="stroke:#038048;stroke-width:1.0;"/><text fill="#000000" font-family="sans-serif" font-size="14" lengthAdjust="spacing" textLength="120" x="266.5" y="334.5889">String ErrorType</text><line style="stroke:#181818;stroke-width:0.5;" x1="247.5" x2="431.5" y1="341.8906" y2="341.8906"/></g><!--class SpeechPronounciationResultData--><g id="elem_SpeechPronounciationResultData"><rect codeLine="20" fill="#F1F1F1" height="178.375" id="SpeechPronounciationResultData" rx="2.5" ry="2.5" style="stroke:#181818;stroke-width:0.5;" width="273" x="203" y="7"/><ellipse cx="218" cy="23" fill="#ADD1B2" rx="11" ry="11" style="stroke:#181818;stroke-width:1.0;"/><path d="M220.3438,18.6719 C219.4063,18.2344 218.8125,18.0938 217.9375,18.0938 C215.3125,18.0938 213.3125,20.1719 213.3125,22.8906 L213.3125,24.0156 C213.3125,26.5938 215.4219,28.4844 218.3125,28.4844 C219.5313,28.4844 220.6875,28.1875 221.4375,27.6406 C222.0156,27.2344 222.3438,26.7813 222.3438,26.3906 C222.3438,25.9375 221.9531,25.5469 221.4844,25.5469 C221.2656,25.5469 221.0625,25.625 220.875,25.8125 C220.4219,26.2969 220.4219,26.2969 220.2344,26.3906 C219.8125,26.6563 219.125,26.7813 218.3594,26.7813 C216.3125,26.7813 215.0156,25.6875 215.0156,23.9844 L215.0156,22.8906 C215.0156,21.1094 216.2656,19.7969 218,19.7969 C218.5781,19.7969 219.1875,19.9531 219.6563,20.2031 C220.1406,20.4844 220.3125,20.7031 220.4063,21.1094 C220.4688,21.5156 220.5,21.6406 220.6406,21.7656 C220.7813,21.9063 221.0156,22.0156 221.2344,22.0156 C221.5,22.0156 221.7656,21.875 221.9375,21.6563 C222.0469,21.5 222.0781,21.3125 222.0781,20.8906 L222.0781,19.4688 C222.0781,19.0313 222.0625,18.9063 221.9688,18.75 C221.8125,18.4844 221.5313,18.3438 221.2344,18.3438 C220.9375,18.3438 220.7344,18.4375 220.5156,18.75 L220.3438,18.6719 Z " fill="#000000"/><text fill="#000000" font-family="sans-serif" font-size="14" lengthAdjust="spacing" textLength="241" x="232" y="27.8467">SpeechPronounciationResultData</text><line style="stroke:#181818;stroke-width:0.5;" x1="204" x2="475" y1="39" y2="39"/><ellipse cx="214" cy="52.6484" fill="none" rx="3" ry="3" style="stroke:#038048;stroke-width:1.0;"/><text fill="#000000" font-family="sans-serif" font-size="14" lengthAdjust="spacing" textLength="88" x="223" y="55.9951">Guid Id &#171;PK&#187;</text><ellipse cx="214" cy="68.9453" fill="none" rx="3" ry="3" style="stroke:#038048;stroke-width:1.0;"/><text fill="#000000" font-family="sans-serif" font-size="14" lengthAdjust="spacing" textLength="130" x="223" y="72.292">String UserId &#171;FK&#187;</text><ellipse cx="214" cy="85.2422" fill="none" rx="3" ry="3" style="stroke:#038048;stroke-width:1.0;"/><text fill="#000000" font-family="sans-serif" font-size="14" lengthAdjust="spacing" textLength="81" x="223" y="88.5889">String Text</text><ellipse cx="214" cy="101.5391" fill="none" rx="3" ry="3" style="stroke:#038048;stroke-width:1.0;"/><text fill="#000000" font-family="sans-serif" font-size="14" lengthAdjust="spacing" textLength="116" x="223" y="104.8857">String Language</text><ellipse cx="214" cy="117.8359" fill="none" rx="3" ry="3" style="stroke:#038048;stroke-width:1.0;"/><text fill="#000000" font-family="sans-serif" font-size="14" lengthAdjust="spacing" textLength="160" x="223" y="121.1826">Double AccuracyScore</text><ellipse cx="214" cy="134.1328" fill="none" rx="3" ry="3" style="stroke:#038048;stroke-width:1.0;"/><text fill="#000000" font-family="sans-serif" font-size="14" lengthAdjust="spacing" textLength="150" x="223" y="137.4795">Double FluencyScore</text><ellipse cx="214" cy="150.4297" fill="none" rx="3" ry="3" style="stroke:#038048;stroke-width:1.0;"/><text fill="#000000" font-family="sans-serif" font-size="14" lengthAdjust="spacing" textLength="200" x="223" y="153.7764">Double CompletenessScore</text><ellipse cx="214" cy="166.7266" fill="none" rx="3" ry="3" style="stroke:#038048;stroke-width:1.0;"/><text fill="#000000" font-family="sans-serif" font-size="14" lengthAdjust="spacing" textLength="195" x="223" y="170.0732">Double PronunciationScore</text><line style="stroke:#181818;stroke-width:0.5;" x1="204" x2="475" y1="177.375" y2="177.375"/></g><!--class UserData--><g id="elem_UserData"><rect codeLine="31" fill="#F1F1F1" height="96.8906" id="UserData" rx="2.5" ry="2.5" style="stroke:#181818;stroke-width:0.5;" width="156" x="533.5" y="47.5"/><ellipse cx="575.05" cy="63.5" fill="#ADD1B2" rx="11" ry="11" style="stroke:#181818;stroke-width:1.0;"/><path d="M577.3938,59.1719 C576.4563,58.7344 575.8625,58.5938 574.9875,58.5938 C572.3625,58.5938 570.3625,60.6719 570.3625,63.3906 L570.3625,64.5156 C570.3625,67.0938 572.4719,68.9844 575.3625,68.9844 C576.5813,68.9844 577.7375,68.6875 578.4875,68.1406 C579.0656,67.7344 579.3938,67.2813 579.3938,66.8906 C579.3938,66.4375 579.0031,66.0469 578.5344,66.0469 C578.3156,66.0469 578.1125,66.125 577.925,66.3125 C577.4719,66.7969 577.4719,66.7969 577.2844,66.8906 C576.8625,67.1563 576.175,67.2813 575.4094,67.2813 C573.3625,67.2813 572.0656,66.1875 572.0656,64.4844 L572.0656,63.3906 C572.0656,61.6094 573.3156,60.2969 575.05,60.2969 C575.6281,60.2969 576.2375,60.4531 576.7063,60.7031 C577.1906,60.9844 577.3625,61.2031 577.4563,61.6094 C577.5188,62.0156 577.55,62.1406 577.6906,62.2656 C577.8313,62.4063 578.0656,62.5156 578.2844,62.5156 C578.55,62.5156 578.8156,62.375 578.9875,62.1563 C579.0969,62 579.1281,61.8125 579.1281,61.3906 L579.1281,59.9688 C579.1281,59.5313 579.1125,59.4063 579.0188,59.25 C578.8625,58.9844 578.5813,58.8438 578.2844,58.8438 C577.9875,58.8438 577.7844,58.9375 577.5656,59.25 L577.3938,59.1719 Z " fill="#000000"/><text fill="#000000" font-family="sans-serif" font-size="14" lengthAdjust="spacing" textLength="65" x="594.95" y="68.3467">UserData</text><line style="stroke:#181818;stroke-width:0.5;" x1="534.5" x2="688.5" y1="79.5" y2="79.5"/><ellipse cx="544.5" cy="93.1484" fill="none" rx="3" ry="3" style="stroke:#038048;stroke-width:1.0;"/><text fill="#000000" font-family="sans-serif" font-size="14" lengthAdjust="spacing" textLength="88" x="553.5" y="96.4951">Guid Id &#171;PK&#187;</text><ellipse cx="544.5" cy="109.4453" fill="none" rx="3" ry="3" style="stroke:#038048;stroke-width:1.0;"/><text fill="#000000" font-family="sans-serif" font-size="14" lengthAdjust="spacing" textLength="130" x="553.5" y="112.792">String UserId &#171;FK&#187;</text><ellipse cx="544.5" cy="125.7422" fill="none" rx="3" ry="3" style="stroke:#038048;stroke-width:1.0;"/><text fill="#000000" font-family="sans-serif" font-size="14" lengthAdjust="spacing" textLength="126" x="553.5" y="129.0889">Int RequestCount</text><line style="stroke:#181818;stroke-width:0.5;" x1="534.5" x2="688.5" y1="136.3906" y2="136.3906"/></g><g id="elem_GMN7"><path d="M467.5,281.5 L467.5,321.7656 A0,0 0 0 0 467.5,321.7656 L755.5,321.7656 A0,0 0 0 0 755.5,321.7656 L755.5,291.5 L745.5,281.5 L615.5,281.5 L611.5,144.712 L607.5,281.5 L467.5,281.5 A0,0 0 0 0 467.5,281.5 " fill="#FEFFDD" style="stroke:#181818;stroke-width:0.5;"/><path d="M745.5,281.5 L745.5,291.5 L755.5,291.5 L745.5,281.5 " fill="#FEFFDD" style="stroke:#181818;stroke-width:0.5;"/><text fill="#000000" font-family="sans-serif" font-size="13" lengthAdjust="spacing" textLength="240" x="473.5" y="298.5669">RequestCount -&gt; Currently trial users</text><text fill="#000000" font-family="sans-serif" font-size="13" lengthAdjust="spacing" textLength="263" x="477.5" y="313.6997">are limited to a specific amount of chats.</text></g><!--reverse link ConversationData to ChatData--><g id="link_ConversationData_ChatData"><path codeLine="38" d="M87.5,156.712 C87.5,186.668 87.5,213.429 87.5,244.793 " fill="none" id="ConversationData-backto-ChatData" style="stroke:#181818;stroke-width:1.0;"/><polygon fill="#181818" points="87.5,144.712,83.5,150.712,87.5,156.712,91.5,150.712,87.5,144.712" style="stroke:#181818;stroke-width:1.0;"/><text fill="#000000" font-family="sans-serif" font-size="13" lengthAdjust="spacing" textLength="8" x="78.9625" y="164.3487">1</text><text fill="#000000" font-family="sans-serif" font-size="13" lengthAdjust="spacing" textLength="23" x="63.0984" y="234.0313">0..*</text></g><!--reverse link SpeechPronounciationResultData to WordData--><g id="link_SpeechPronounciationResultData_WordData"><path codeLine="39" d="M339.5,197.074 C339.5,220.384 339.5,232.669 339.5,252.916 " fill="none" id="SpeechPronounciationResultData-backto-WordData" style="stroke:#181818;stroke-width:1.0;"/><polygon fill="#181818" points="339.5,185.074,335.5,191.074,339.5,197.074,343.5,191.074,339.5,185.074" style="stroke:#181818;stroke-width:1.0;"/><text fill="#000000" font-family="sans-serif" font-size="13" lengthAdjust="spacing" textLength="8" x="331.1563" y="205.4298">1</text><text fill="#000000" font-family="sans-serif" font-size="13" lengthAdjust="spacing" textLength="23" x="314.8109" y="241.7633">0..*</text></g><!--SRC=[fP9DJyCm38Rl_HLMZqERu8gcIT0nDC5XseQuSF5IhukKnYLn41FYlvEkK7KVQ1Ba5EMrd_YrhGnw3ndRDt8UHRCTeo1y913FnNtGEKnp60vd3wDHyxOGfsq1JvxSJfaSAaijXfBF954DUuFIPKwjH6HplsKsX1QcliRjK-XTzXuUqHO1YmxvcLtU9HzbZZci3C6DKi6XsYuKEzeBlNEEtN9RTQ2BYaXjPeuj1wlqhYLpyi78_nlpgwKprNuh4nF8dX8oBYj3GfQyFrPhBwsLHcxTriN-tLSzoZcz1lAInMv9pRKi12iMuH9utNvmtOs3_WYou1nPCLk8U3GGOg1_iO2EmEXI2-KW30Y-8gNNMW6Mkzm8LN6b_20vsjhqAeLUlm_fvM3GIzlDIyxCz23jPws-0000]--></g></svg>